<svg height="464pt" viewBox="0 -72 464 464" width="464pt" xmlns="http://www.w3.org/2000/svg"><path d="m176 0h272c8.835938 0 16 7.164062 16 16v176c0 8.835938-7.164062 16-16 16h-272c-8.835938 0-16-7.164062-16-16v-176c0-8.835938 7.164062-16 16-16zm0 0" fill="#bcbcbc"/><path d="m344 152h16v16h-16zm0 0" fill="#565656"/><path d="m376 152h32v16h-32zm0 0" fill="#565656"/><path d="m424 152h16v16h-16zm0 0" fill="#565656"/><path d="m160 40h304v88h-304zm0 0" fill="#565656"/><path d="m16 112h272c8.835938 0 16 7.164062 16 16v176c0 8.835938-7.164062 16-16 16h-272c-8.835938 0-16-7.164062-16-16v-176c0-8.835938 7.164062-16 16-16zm0 0" fill="#efefef"/><g fill="#bcbcbc"><path d="m264 144h16v16h-16zm0 0"/><path d="m152 144h96v16h-96zm0 0"/><path d="m120 144h16v16h-16zm0 0"/><path d="m264 176h16v16h-16zm0 0"/><path d="m152 176h96v16h-96zm0 0"/><path d="m120 176h16v16h-16zm0 0"/><path d="m264 208h16v16h-16zm0 0"/><path d="m152 208h96v16h-96zm0 0"/><path d="m120 208h16v16h-16zm0 0"/><path d="m24 240h16v16h-16zm0 0"/><path d="m264 240h16v16h-16zm0 0"/><path d="m56 240h192v16h-192zm0 0"/><path d="m24 272h16v16h-16zm0 0"/><path d="m264 272h16v16h-16zm0 0"/><path d="m56 272h192v16h-192zm0 0"/></g><path d="m48 152h32c8.835938 0 16 7.164062 16 16v32c0 8.835938-7.164062 16-16 16h-32c-8.835938 0-16-7.164062-16-16v-32c0-8.835938 7.164062-16 16-16zm0 0" fill="#ffe675"/></svg>