<svg height="464pt" viewBox="0 0 464 464" width="464pt" xmlns="http://www.w3.org/2000/svg"><path d="m448 464h-432c-8.835938 0-16-7.164062-16-16v-384h464v384c0 8.835938-7.164062 16-16 16zm0 0" fill="#d6d6d6"/><path d="m16 0h432c8.835938 0 16 7.164062 16 16v48h-464v-48c0-8.835938 7.164062-16 16-16zm0 0" fill="#6a9be6"/><path d="m376 32c0 4.417969-3.582031 8-8 8s-8-3.582031-8-8 3.582031-8 8-8 8 3.582031 8 8zm0 0" fill="#476899"/><path d="m408 32c0 4.417969-3.582031 8-8 8s-8-3.582031-8-8 3.582031-8 8-8 8 3.582031 8 8zm0 0" fill="#476899"/><path d="m440 32c0 4.417969-3.582031 8-8 8s-8-3.582031-8-8 3.582031-8 8-8 8 3.582031 8 8zm0 0" fill="#476899"/><path d="m72 336c0 4.417969-3.582031 8-8 8s-8-3.582031-8-8 3.582031-8 8-8 8 3.582031 8 8zm0 0"/><path d="m360 128c0 4.417969-3.582031 8-8 8s-8-3.582031-8-8 3.582031-8 8-8 8 3.582031 8 8zm0 0"/><path d="m384 128c0 4.417969-3.582031 8-8 8s-8-3.582031-8-8 3.582031-8 8-8 8 3.582031 8 8zm0 0"/><path d="m408 128c0 4.417969-3.582031 8-8 8s-8-3.582031-8-8 3.582031-8 8-8 8 3.582031 8 8zm0 0"/><path d="m48 96h368c8.835938 0 16 7.164062 16 16v240c0 8.835938-7.164062 16-16 16h-368c-8.835938 0-16-7.164062-16-16v-240c0-8.835938 7.164062-16 16-16zm0 0" fill="#efefef"/><path d="m96 144c0 8.835938-7.164062 16-16 16s-16-7.164062-16-16 7.164062-16 16-16 16 7.164062 16 16zm0 0" fill="#cc995e"/><path d="m80 168c-13.253906 0-24-10.746094-24-24s10.746094-24 24-24 24 10.746094 24 24c-.015625 13.25-10.75 23.984375-24 24zm0-32c-4.417969 0-8 3.582031-8 8s3.582031 8 8 8 8-3.582031 8-8c-.003906-4.417969-3.582031-7.996094-8-8zm0 0" fill="#ffbf75"/><path d="m120 136h16v16h-16zm0 0" fill="#a3a3a3"/><path d="m152 136h32v16h-32zm0 0" fill="#a3a3a3"/><path d="m200 136h16v16h-16zm0 0" fill="#a3a3a3"/><path d="m352 328h16v16h-16zm0 0" fill="#a3a3a3"/><path d="m384 328h24v16h-24zm0 0" fill="#a3a3a3"/><g fill="#bcbcbc"><path d="m288 192h16v16h-16zm0 0"/><path d="m320 192h56v16h-56zm0 0"/><path d="m392 192h16v16h-16zm0 0"/><path d="m248 224h16v16h-16zm0 0"/><path d="m280 224h96v16h-96zm0 0"/><path d="m392 224h16v16h-16zm0 0"/><path d="m248 256h16v16h-16zm0 0"/><path d="m280 256h96v16h-96zm0 0"/><path d="m392 256h16v16h-16zm0 0"/><path d="m248 288h16v16h-16zm0 0"/><path d="m280 288h96v16h-96zm0 0"/><path d="m392 288h16v16h-16zm0 0"/></g><path d="m80 192h120c8.835938 0 16 7.164062 16 16v80c0 8.835938-7.164062 16-16 16h-120c-8.835938 0-16-7.164062-16-16v-80c0-8.835938 7.164062-16 16-16zm0 0" fill="#75c1ff"/><path d="m32 464v-48c0-8.835938 7.164062-16 16-16h368c8.835938 0 16 7.164062 16 16v48zm0 0" fill="#efefef"/></svg>