<svg height="464pt" viewBox="0 -4 464 464" width="464pt" xmlns="http://www.w3.org/2000/svg"><path d="m16 0h432c8.835938 0 16 7.164062 16 16v264h-464v-264c0-8.835938 7.164062-16 16-16zm0 0" fill="#75c1ff"/><path d="m0 280h464v64c0 8.835938-7.164062 16-16 16h-432c-8.835938 0-16-7.164062-16-16zm0 0" fill="#efefef"/><path d="m176 360h112v88h-112zm0 0" fill="#bcbcbc"/><path d="m128 440h208v16h-208zm0 0" fill="#efefef"/><path d="m120 32h224c8.835938 0 16 7.164062 16 16v256c0 8.835938-7.164062 16-16 16h-224c-8.835938 0-16-7.164062-16-16v-256c0-8.835938 7.164062-16 16-16zm0 0" fill="#5e8acc"/><path d="m160 56h16v240h-16zm0 0" fill="#5279b3"/><path d="m416 320c0 35.347656-28.652344 64-64 64s-64-28.652344-64-64 28.652344-64 64-64 64 28.652344 64 64zm0 0" fill="#ff675b"/><path d="m344.535156 355.847656-30.191406-30.191406 11.3125-11.3125 17.808594 17.808594 34.382812-41.273438 12.304688 10.242188zm0 0" fill="#efefef"/><path d="m328 168c0 35.347656-28.652344 64-64 64s-64-28.652344-64-64 28.652344-64 64-64 64 28.652344 64 64zm0 0" fill="#ffe675"/><path d="m264 96c-39.765625 0-72 32.234375-72 72s32.234375 72 72 72 72-32.234375 72-72c-.042969-39.746094-32.253906-71.957031-72-72zm31.527344 84.664062c.308594-4.1875.472656-8.425781.472656-12.664062s-.164062-8.476562-.472656-12.664062c16.011718 3.722656 24.472656 9.625 24.472656 12.664062s-8.460938 8.941406-24.472656 12.664062zm-31.527344 43.335938c-3.039062 0-8.9375-8.460938-12.664062-24.472656 4.1875.308594 8.425781.472656 12.664062.472656s8.476562-.164062 12.664062-.472656c-3.726562 16.011718-9.625 24.472656-12.664062 24.472656zm0-40c-5.488281 0-10.546875-.28125-15.261719-.738281-.457031-4.714844-.738281-9.773438-.738281-15.261719s.28125-10.546875.738281-15.261719c4.714844-.457031 9.773438-.738281 15.261719-.738281s10.546875.28125 15.261719.738281c.457031 4.714844.738281 9.773438.738281 15.261719s-.28125 10.546875-.738281 15.261719c-4.714844.457031-9.773438.738281-15.261719.738281zm-56-16c0-3.039062 8.460938-8.941406 24.472656-12.664062-.308594 4.1875-.472656 8.425781-.472656 12.664062s.164062 8.476562.472656 12.664062c-16.011718-3.722656-24.472656-9.625-24.472656-12.664062zm56-56c3.039062 0 8.9375 8.460938 12.664062 24.472656-4.1875-.308594-8.425781-.472656-12.664062-.472656s-8.476562.164062-12.664062.472656c3.726562-16.011718 9.625-24.472656 12.664062-24.472656zm50.890625 32.769531c-6.921875-2.820312-14.132813-4.886719-21.5-6.160156-1.273437-7.367187-3.339844-14.578125-6.160156-21.5 12.230469 5.617187 22.042969 15.429687 27.660156 27.660156zm-74.121094-27.660156c-2.820312 6.921875-4.886719 14.132813-6.160156 21.5-7.367187 1.273437-14.574219 3.339844-21.5 6.160156 5.617187-12.230469 15.429687-22.042969 27.660156-27.660156zm-27.660156 74.121094c6.925781 2.820312 14.132813 4.886719 21.5 6.160156 1.273437 7.367187 3.339844 14.574219 6.160156 21.5-12.230469-5.617187-22.042969-15.429687-27.660156-27.660156zm74.121094 27.660156c2.820312-6.925781 4.886719-14.132813 6.160156-21.5 7.367187-1.273437 14.578125-3.339844 21.5-6.160156-5.617187 12.230469-15.429687 22.042969-27.660156 27.660156zm0 0" fill="#ccb85e"/></svg>