<svg height="472pt" viewBox="0 0 472 472" width="472pt" xmlns="http://www.w3.org/2000/svg"><path d="m376 192c0 101.621094-82.378906 184-184 184s-184-82.378906-184-184 82.378906-184 184-184 184 82.378906 184 184zm0 0" fill="#ffe675"/><path d="m440 168h16v112h-16zm0 0" fill="#56965d"/><path d="m400 144h32v16h-32zm0 0" fill="#56965d"/><path d="m264 280h64v64h-80v-48c0-8.835938 7.164062-16 16-16zm0 0" fill="#efefef"/><path d="m328 280h128c8.835938 0 16 7.164062 16 16v48h-144zm0 0" fill="#d6d6d6"/><path d="m248 344h80v64h-80zm0 0" fill="#d6d6d6"/><path d="m328 344h144v64h-144zm0 0" fill="#bcbcbc"/><path d="m248 408h80v64h-64c-8.835938 0-16-7.164062-16-16zm0 0" fill="#bcbcbc"/><path d="m328 408h144v48c0 8.835938-7.164062 16-16 16h-128zm0 0" fill="#a3a3a3"/><path d="m392 304h16v16h-16zm0 0" fill="#bcbcbc"/><path d="m424 304h16v16h-16zm0 0" fill="#bcbcbc"/><path d="m360 368h16v16h-16zm0 0" fill="#a3a3a3"/><path d="m392 368h16v16h-16zm0 0" fill="#a3a3a3"/><path d="m424 368h16v16h-16zm0 0" fill="#a3a3a3"/><g fill="#898989"><path d="m296 440c0 4.417969-3.582031 8-8 8s-8-3.582031-8-8 3.582031-8 8-8 8 3.582031 8 8zm0 0"/><path d="m280 432h16v16h-16zm0 0"/><path d="m360 432h16v16h-16zm0 0"/><path d="m392 432h16v16h-16zm0 0"/><path d="m424 432h16v16h-16zm0 0"/></g><path d="m168 432h80v16h-80zm0 0" fill="#56965d"/><path d="m144 400h16v24h-16zm0 0" fill="#56965d"/><path d="m376 192c0 101.621094-82.378906 184-184 184s-184-82.378906-184-184 82.378906-184 184-184 184 82.378906 184 184zm0 0" fill="#ffe675"/><path d="m32 408h24v16h-24zm0 0" fill="#56965d"/><path d="m0 408h16v16h-16zm0 0" fill="#56965d"/><path d="m64 368h16v32h-16zm0 0" fill="#56965d"/><path d="m286.679688 111.304688c19.042968-6.925782 36.890624-16.785157 52.890624-29.21875-3.195312-4.285157-6.597656-8.40625-10.144531-12.390626-14.246093 11.0625-30.089843 19.898438-46.992187 26.195313-11.984375-38.992187-31.175782-68.957031-54.445313-84.347656-23.757812-4.722657-48.21875-4.722657-71.976562 0-23.269531 15.390625-42.460938 45.355469-54.445313 84.347656-16.902344-6.296875-32.746094-15.132813-46.992187-26.195313-3.546875 3.984376-6.949219 8.105469-10.144531 12.390626 16 12.433593 33.847656 22.292968 52.890624 29.21875-5.703124 23.824218-8.792968 48.199218-9.214843 72.695312h-79.902344c-.113281 2.65625-.203125 5.316406-.203125 8s.089844 5.34375.203125 8h79.902344c.421875 24.496094 3.511719 48.871094 9.214843 72.695312-19.042968 6.925782-36.886718 16.785157-52.890624 29.21875 3.195312 4.285157 6.597656 8.40625 10.144531 12.390626 14.246093-11.0625 30.09375-19.898438 46.992187-26.195313 11.984375 38.992187 31.175782 68.957031 54.445313 84.347656 23.761719 4.722657 48.21875 4.722657 71.976562 0 23.269531-15.390625 42.460938-45.355469 54.445313-84.347656 16.902344 6.296875 32.746094 15.132813 46.992187 26.195313 3.546875-3.984376 6.949219-8.105469 10.144531-12.390626-16-12.433593-33.847656-22.292968-52.890624-29.21875 5.707031-23.824218 8.796874-48.199218 9.214843-72.695312h79.902344c.113281-2.65625.203125-5.316406.203125-8s-.089844-5.34375-.203125-8h-79.902344c-.421875-24.496094-3.511719-48.871094-9.214843-72.695312zm-102.679688 255.898437c-27.984375-5.320313-52.65625-38.152344-66.957031-84.453125 21.765625-6.410156 44.277343-9.925781 66.957031-10.460938zm0-110.910156c-24.117188.554687-48.054688 4.28125-71.199219 11.089843-5.304687-22.085937-8.21875-44.675781-8.695312-67.382812h79.894531zm0-72.292969h-79.894531c.476562-22.707031 3.390625-45.296875 8.695312-67.382812 23.144531 6.808593 47.082031 10.535156 71.199219 11.089843zm0-72.289062c-22.679688-.535157-45.191406-4.050782-66.957031-10.460938 14.300781-46.300781 38.972656-79.132812 66.957031-84.453125zm16-94.914063c27.984375 5.320313 52.65625 38.152344 66.957031 84.453125-21.765625 6.410156-44.277343 9.925781-66.957031 10.460938zm0 350.40625v-94.914063c22.679688.535157 45.191406 4.050782 66.957031 10.464844-14.300781 46.296875-38.972656 79.128906-66.957031 84.449219zm71.199219-99.820313c-23.144531-6.808593-47.082031-10.535156-71.199219-11.089843v-56.292969h79.894531c-.476562 22.707031-3.390625 45.296875-8.695312 67.382812zm-71.199219-83.382812v-56.292969c24.117188-.554687 48.054688-4.28125 71.199219-11.089843 5.304687 22.085937 8.21875 44.675781 8.695312 67.382812zm0 0" fill="#ccb85d"/><path d="m368 72h48v16h-48zm0 0" fill="#56965d"/><path d="m424 0h16v16h-16zm0 0" fill="#56965d"/><path d="m424 32h16v32h-16zm0 0" fill="#56965d"/><path d="m464 152c0 8.835938-7.164062 16-16 16s-16-7.164062-16-16 7.164062-16 16-16 16 7.164062 16 16zm0 0" fill="#56965d"/><path d="m448 176c-13.253906 0-24-10.746094-24-24s10.746094-24 24-24 24 10.746094 24 24c-.015625 13.25-10.75 23.984375-24 24zm0-32c-4.417969 0-8 3.582031-8 8s3.582031 8 8 8 8-3.582031 8-8c-.003906-4.417969-3.582031-7.996094-8-8zm0 0" fill="#73c97c"/><path d="m168 440c0 8.835938-7.164062 16-16 16s-16-7.164062-16-16 7.164062-16 16-16 16 7.164062 16 16zm0 0" fill="#56965d"/><path d="m152 464c-13.253906 0-24-10.746094-24-24s10.746094-24 24-24 24 10.746094 24 24c-.015625 13.25-10.75 23.984375-24 24zm0-32c-4.417969 0-8 3.582031-8 8s3.582031 8 8 8 8-3.582031 8-8c-.003906-4.417969-3.582031-7.996094-8-8zm0 0" fill="#73c97c"/><path d="m88 416c0 8.835938-7.164062 16-16 16s-16-7.164062-16-16 7.164062-16 16-16 16 7.164062 16 16zm0 0" fill="#56965d"/><path d="m72 440c-13.253906 0-24-10.746094-24-24s10.746094-24 24-24 24 10.746094 24 24c-.015625 13.25-10.75 23.984375-24 24zm0-32c-4.417969 0-8 3.582031-8 8s3.582031 8 8 8 8-3.582031 8-8c-.003906-4.417969-3.582031-7.996094-8-8zm0 0" fill="#73c97c"/><path d="m448 80c0 8.835938-7.164062 16-16 16s-16-7.164062-16-16 7.164062-16 16-16 16 7.164062 16 16zm0 0" fill="#56965d"/><path d="m432 104c-13.253906 0-24-10.746094-24-24s10.746094-24 24-24 24 10.746094 24 24c-.015625 13.25-10.75 23.984375-24 24zm0-32c-4.417969 0-8 3.582031-8 8s3.582031 8 8 8 8-3.582031 8-8c-.003906-4.417969-3.582031-7.996094-8-8zm0 0" fill="#73c97c"/></svg>