<svg id="Capa_1" enable-background="new 0 0 512 512" height="512" viewBox="0 0 512 512" width="512" xmlns="http://www.w3.org/2000/svg"><g><g><path d="m423.325 158.799c-.448-4.014-3.928-7.009-7.968-7.009h-17.231c-3.682-21.898-12.237-42.097-24.602-59.466l12.164-12.164c2.856-2.856 3.2-7.435.678-10.59-3.519-4.402-7.253-8.686-11.332-12.765s-8.363-7.814-12.765-11.332c-3.155-2.522-7.734-2.179-10.59.678l-12.164 12.164c-17.368-12.366-37.568-20.92-59.466-24.602v-17.232c0-4.039-2.994-7.52-7.009-7.968-5.601-.625-11.271-1.013-17.04-1.013s-11.439.388-17.039 1.013c-4.015.448-7.009 3.929-7.009 7.968v17.231c-21.898 3.682-42.097 12.237-59.466 24.602l-12.164-12.164c-2.856-2.856-7.435-3.2-10.59-.678-4.402 3.518-8.686 7.252-12.765 11.332-4.079 4.079-7.814 8.363-11.332 12.765-2.522 3.155-2.178 7.734.678 10.59l12.164 12.164c-12.365 17.368-20.92 37.568-24.602 59.466h-17.232c-4.039 0-7.52 2.994-7.968 7.009-.625 5.601-1.014 11.27-1.014 17.04 0 5.769.388 11.439 1.014 17.04.448 4.014 3.928 7.009 7.968 7.009h17.231c3.682 21.898 12.237 42.097 24.602 59.466l-12.164 12.164c-2.856 2.856-3.2 7.435-.678 10.59 3.519 4.402 7.253 8.686 11.332 12.765s8.363 7.814 12.765 11.332c3.155 2.522 7.734 2.179 10.59-.678l12.164-12.164c17.368 12.366 40.116 19.205 62.014 22.887h43c21.898-3.682 44.646-10.522 62.014-22.887l12.164 12.164c2.856 2.856 7.435 3.2 10.59.678 4.402-3.518 8.686-7.252 12.765-11.332 4.079-4.079 7.814-8.363 11.332-12.765 2.522-3.155 2.178-7.734-.678-10.59l-12.164-12.164c12.365-17.368 20.92-37.568 24.602-59.466h17.231c4.039 0 7.52-2.994 7.968-7.009.625-5.601 1.014-11.27 1.014-17.04.002-5.769-.387-11.438-1.012-17.039zm-167.325 113.233c-53.126 0-96.194-43.068-96.194-96.194s43.067-96.194 96.194-96.194 96.194 43.067 96.194 96.194-43.068 96.194-96.194 96.194z" fill="#ffe07d"/><path d="m374.987 260.816c-26.185 26.686-62.615 43.28-102.955 43.28-79.69 0-144.29-64.601-144.29-144.29 0-40.34 16.595-76.771 43.28-102.955l-10.7-10.7c-2.856-2.856-7.435-3.2-10.59-.678-4.402 3.518-8.686 7.252-12.765 11.332-4.079 4.079-7.814 8.363-11.332 12.765-2.522 3.155-2.178 7.734.678 10.59l12.164 12.164c-12.365 17.368-20.92 37.568-24.602 59.466h-17.232c-4.039 0-7.52 2.994-7.968 7.009-.625 5.601-1.014 11.27-1.014 17.04 0 5.769.388 11.439 1.014 17.04.448 4.014 3.928 7.009 7.968 7.009h17.231c3.682 21.898 12.237 42.097 24.602 59.466l-12.164 12.164c-2.856 2.856-3.2 7.435-.678 10.59 3.519 4.402 7.253 8.686 11.332 12.765s8.363 7.814 12.765 11.332c3.155 2.522 7.734 2.179 10.59-.678l12.164-12.164c17.368 12.366 37.568 20.92 59.466 24.602v17.231c0 4.039 2.994 7.52 7.009 7.968 5.601.625 11.27 1.013 17.039 1.013s11.439-.388 17.039-1.013c4.015-.448 7.009-3.929 7.009-7.968v-17.231c21.898-3.682 42.097-12.237 59.466-24.602l12.164 12.164c2.856 2.856 7.435 3.2 10.59.678 4.402-3.518 8.686-7.252 12.765-11.332 4.079-4.079 7.814-8.363 11.332-12.765 2.522-3.155 2.178-7.734-.678-10.59z" fill="#ffd064"/><path d="m256 63.613c-61.981 0-112.226 50.245-112.226 112.226s50.245 112.226 112.226 112.226 112.226-50.245 112.226-112.226-50.245-112.226-112.226-112.226zm0 192.387c-44.272 0-80.161-35.89-80.161-80.161 0-44.272 35.89-80.161 80.161-80.161s80.161 35.889 80.161 80.161c0 44.271-35.889 80.161-80.161 80.161z" fill="#dad8db"/><path d="m256.529 504.5h-1.057c-12.99 0-23.52-10.53-23.52-23.52v-129.315c0-12.99 10.53-23.52 23.52-23.52h1.057c12.99 0 23.52 10.53 23.52 23.52v129.315c-.001 12.99-10.531 23.52-23.52 23.52z" fill="#dad8db"/><path d="m255.472 328.145c-12.99 0-23.52 10.53-23.52 23.519v129.316c0 12.99 10.53 23.52 23.52 23.52h1.057v-176.355z" fill="#c8c5c9"/><path d="m231.952 368.226v112.754c0 12.99 10.53 23.52 23.52 23.52h1.057c12.99 0 23.52-10.53 23.52-23.52v-112.754z" fill="#e2a975"/><path d="m231.952 368.226v112.754c0 12.99 10.53 23.52 23.52 23.52h.528v-136.274z" fill="#d19a6e"/></g><g><path d="m263.5 321.445v-26.122c62.536-3.885 112.226-55.986 112.226-119.484 0-66.017-53.708-119.726-119.726-119.726s-119.726 53.709-119.726 119.726c0 63.498 49.69 115.599 112.226 119.484v26.122c-13.757 3.173-24.048 15.513-24.048 30.22v129.315c0 17.104 13.916 31.02 31.02 31.02h1.058c17.104 0 31.02-13.916 31.02-31.02v-129.315c-.002-14.707-10.293-27.047-24.05-30.22zm-112.226-145.606c0-57.746 46.979-104.726 104.726-104.726s104.726 46.98 104.726 104.726-46.98 104.725-104.726 104.725-104.726-46.979-104.726-104.725zm104.197 159.806h1.058c8.833 0 16.02 7.187 16.02 16.02v9.061h-33.097v-9.061c0-8.833 7.186-16.02 16.019-16.02zm1.058 161.355h-1.058c-8.833 0-16.02-7.187-16.02-16.02v-105.254h33.097v105.254c0 8.833-7.186 16.02-16.019 16.02z"/><path d="m430.779 157.967c-.87-7.797-7.5-13.677-15.421-13.677h-11.019c-3.854-18.301-10.938-35.423-21.12-51.054l7.771-7.772c5.603-5.601 6.133-14.447 1.234-20.576-4.016-5.024-7.904-9.403-11.888-13.386-3.983-3.983-8.362-7.872-13.386-11.887-6.128-4.898-14.974-4.369-20.576 1.233l-7.772 7.772c-15.63-10.183-32.752-17.266-51.054-21.12v-11.019c0-7.921-5.88-14.551-13.678-15.422-6.392-.712-12.238-1.059-17.87-1.059s-11.478.347-17.871 1.06c-7.797.871-13.677 7.5-13.677 15.422v11.018c-18.302 3.854-35.424 10.937-51.054 21.12l-7.772-7.772c-5.602-5.601-14.448-6.131-20.576-1.233-5.024 4.016-9.403 7.904-13.386 11.888-3.983 3.983-7.872 8.362-11.887 13.386-4.899 6.129-4.369 14.975 1.233 20.576l7.772 7.772c-10.183 15.631-17.266 32.753-21.12 51.054h-11.019c-7.922 0-14.552 5.88-15.421 13.677-.713 6.392-1.06 12.238-1.06 17.872 0 5.633.347 11.479 1.06 17.871.87 7.797 7.5 13.678 15.421 13.678h11.019c3.854 18.301 10.937 35.422 21.12 51.053l-7.772 7.772c-5.602 5.602-6.132 14.448-1.233 20.577 4.014 5.021 7.902 9.4 11.888 13.386 3.981 3.98 8.359 7.869 13.386 11.886 6.127 4.898 14.974 4.369 20.576-1.233l7.773-7.773c12.513 8.141 26.109 14.35 40.5 18.489.692.199 1.391.294 2.077.294 3.259 0 6.258-2.141 7.204-5.429 1.146-3.98-1.153-8.136-5.134-9.281-14.798-4.257-28.663-10.945-41.209-19.877-2.983-2.124-7.064-1.782-9.653.807l-12.163 12.163c-.189.19-.48.223-.604.123-4.588-3.667-8.561-7.193-12.145-10.776-3.588-3.588-7.113-7.561-10.777-12.145-.099-.124-.067-.415.123-.605l12.164-12.164c2.589-2.589 2.93-6.67.807-9.653-12.022-16.887-19.867-35.849-23.316-56.359-.607-3.612-3.734-6.256-7.396-6.256h-17.235c-.268 0-.497-.183-.514-.341-.651-5.834-.967-11.135-.967-16.208s.316-10.374.967-16.208c.018-.157.246-.34.514-.34h17.231c3.662 0 6.789-2.645 7.396-6.256 3.45-20.511 11.294-39.474 23.316-56.36 2.124-2.983 1.783-7.063-.807-9.653l-12.164-12.165c-.189-.189-.221-.48-.122-.604 3.665-4.586 7.19-8.559 10.776-12.145s7.559-7.111 12.145-10.777c.124-.098.415-.066.604.123l12.164 12.164c2.588 2.589 6.669 2.929 9.653.807 16.885-12.022 35.847-19.867 56.359-23.316 3.611-.607 6.256-3.734 6.256-7.396v-17.232c0-.269.184-.497.34-.515 5.837-.65 11.139-.966 16.21-.966s10.373.316 16.207.967c.158.018.341.246.341.515v17.231c0 3.662 2.645 6.789 6.256 7.396 20.512 3.449 39.474 11.294 56.359 23.316 2.983 2.124 7.064 1.783 9.653-.807l12.163-12.163c.189-.189.481-.222.605-.123 4.586 3.665 8.559 7.19 12.145 10.776s7.111 7.559 10.777 12.145c.099.124.067.414-.123.604l-12.164 12.164c-2.589 2.589-2.93 6.67-.807 9.653 12.022 16.886 19.867 35.849 23.316 56.36.607 3.612 3.734 6.256 7.396 6.256h17.231c.268 0 .497.183.514.34.651 5.834.967 11.136.967 16.208s-.316 10.374-.967 16.208c-.018.158-.246.341-.514.341h-17.231c-3.662 0-6.789 2.645-7.396 6.256-3.45 20.511-11.294 39.473-23.316 56.359-2.124 2.983-1.783 7.063.807 9.653l12.164 12.164c.189.19.222.481.122.605-3.663 4.583-7.188 8.556-10.776 12.144-3.584 3.584-7.557 7.109-12.145 10.777-.124.099-.415.066-.604-.123l-12.163-12.163c-2.589-2.59-6.671-2.93-9.653-.807-12.533 8.923-26.382 15.606-41.161 19.863-3.98 1.146-6.277 5.303-5.131 9.283 1.146 3.979 5.303 6.279 9.283 5.131 14.369-4.139 27.946-10.343 40.444-18.474l7.773 7.773c5.602 5.602 14.447 6.133 20.577 1.233 5.026-4.018 9.404-7.906 13.386-11.887 3.985-3.986 7.873-8.364 11.886-13.386 4.899-6.129 4.369-14.975-1.233-20.577l-7.772-7.772c10.183-15.631 17.266-32.752 21.12-51.053h11.019c7.922 0 14.552-5.88 15.421-13.678.713-6.392 1.06-12.237 1.06-17.871.003-5.632-.344-11.478-1.057-17.87z"/><path d="m204.621 124.459c24.339-24.339 62.796-28.229 91.445-9.249 3.452 2.288 8.107 1.343 10.395-2.11s1.343-8.107-2.11-10.395c-34.572-22.903-80.974-18.215-110.335 11.147-29.362 29.362-34.05 75.765-11.147 110.335 1.443 2.179 3.828 3.359 6.259 3.359 1.422 0 2.861-.404 4.135-1.249 3.453-2.288 4.398-6.941 2.11-10.395-18.98-28.646-15.091-67.104 9.248-91.443z"/><path d="m329.133 127.489c-2.288-3.454-6.942-4.397-10.395-2.11-3.453 2.288-4.398 6.941-2.11 10.395 18.979 28.648 15.09 67.106-9.249 91.445-24.338 24.338-62.795 28.228-91.445 9.249-3.451-2.286-8.106-1.343-10.395 2.11-2.288 3.453-1.343 8.107 2.11 10.395 14.68 9.725 31.487 14.474 48.223 14.474 22.677 0 45.219-8.727 62.113-25.621 29.363-29.364 34.051-75.766 11.148-110.337z"/></g></g></svg>